<?xml version="1.0" encoding="utf-8"?>
<svg version="1.1" xmlns:xlink="http://www.w3.org/1999/xlink" width="22px" height="22px" xmlns="http://www.w3.org/2000/svg">
  <g transform="matrix(1 0 0 1 -1237 -28 )">
    <path d="M 19.3850314021705 11  L 19.3850314021705 19.5472086673171  L 2.42312893059558 19.5472086673171  L 2.42312893059558 2.45279133268293  L 10.9040801663831 2.45279133268293  L 10.9040801663831 0.0107317073170732  L 2.42312893059558 0.0107317073170732  C 1.09040801663831 0.0107317073170732  0 1.10965853658537  0 2.45279133268293  L 0 19.5472086673171  C 0 20.8903414634146  1.09040801663831 21.9892682926829  2.42312893059558 22  L 19.3850314021705 22  C 20.7177523161278 21.9892682926829  21.8081603327661 20.8903414634146  21.8081603327661 19.5472086673171  L 21.8081603327661 11  L 19.3850314021705 11  Z M 15.7503380275742 2.81910026146342  L 6.05782230519191 12.5873387629268  L 6.05782230519191 15.8841192507317  L 9.32904635510683 15.8841192507317  L 19.0215620774891 6.11588074926829  L 15.7503380275742 2.81910026146342  Z M 16.4772766982341 6.23798373268293  L 8.60210768444697 14.1746775043902  L 7.75401256512762 14.1746775043902  L 7.75401256512762 13.3199566419512  L 15.6291815789147 5.3832628702439  L 16.4772766982341 6.23798373268293  Z M 21.5658474354472 3.55171816195122  C 21.9293167814256 3.18540921170732  21.9293167814256 2.6969972995122  21.5658474354472 2.33068834926829  L 19.50618785083 0.254937674146341  C 19.3850314021705 0.132834690731707  19.1427185048516 0.0107317073170732  18.9004056288296 0.0107317073170732  C 18.6580927528077 0.0107317073170732  18.4157798341917 0.132834690731707  18.2946233855322 0.254937674146341  L 16.719589595553 1.84227641560976  L 19.990813645468 5.13905690341463  L 21.5658474354472 3.55171816195122  Z " fill-rule="nonzero" fill="#f6c112" stroke="none" transform="matrix(1 0 0 1 1237 28 )" />
  </g>
</svg>