<?xml version="1.0" encoding="utf-8"?>
<svg version="1.1" xmlns:xlink="http://www.w3.org/1999/xlink" width="20px" height="22px" xmlns="http://www.w3.org/2000/svg">
  <g transform="matrix(1 0 0 1 -1171 -28 )">
    <path d="M 19.9705528846154 17.0656147875817  C 19.9735576923077 16.4646139705882  19.4507211538462 15.9731413398693  18.8046875 15.9703329248366  C 19.0150240384615 15.9647160947712  19.2253605769231 16.0040339052288  19.4266826923077 16.1276041666667  C 18.6965144230769 15.6894914215686  18.2157451923077 14.9256025326797  18.2157451923077 14.0521854575163  L 18.2157451923077 9.17958537581699  C 18.2157451923077 5.61008986928104  15.4543269230769 2.63036151960784  11.7644230769231 1.89736519607843  L 11.7644230769231 1.72324346405229  C 11.7644230769231 0.813316993464052  10.9771634615385 0.0803206699346405  10.0066105769231 0.0803206699346405  C 9.0360576923077 0.0803206699346405  8.24879807692308 0.816125408496732  8.24879807692308 1.72324346405229  L 8.24879807692308 1.89736519607843  C 4.55889423076923 2.63036151960784  1.79747596153847 5.60728145424837  1.79747596153847 9.17958537581699  L 1.79747596153847 14.0521854575163  C 1.79747596153847 14.9256025326797  1.31370192307693 15.6894914215686  0.586538461538466 16.1276041666667  C 0.790865384615389 16.0040339052288  0.998197115384619 15.9619076797386  1.20853365384616 15.9703329248366  C 0.562500000000003 15.9731413398693  0.0396634615384648 16.4589971405229  0.0396634615384648 17.0656147875817  C 0.0396634615384648 17.6722324346405  0.562500000000003 18.1608966503268  1.21153846153846 18  L 18.7986778846154 18  C 19.4477163461538 18.1608966503268  19.9705528846154 17.6722324346405  19.9705528846154 17.0656147875817  Z M 7.07692307692308 19.2589869281046  C 7.07692307692308 20.772722630719  8.38701923076923 22  10.0096153846154 22  C 11.6292067307692 22  12.9423076923077 20.772722630719  12.9423076923077 19.2589869281046  L 7.07692307692308 19.2589869281046  Z " fill-rule="nonzero" fill="#8590a6" stroke="none" transform="matrix(1 0 0 1 1171 28 )" />
  </g>
</svg>