<?xml version="1.0" encoding="utf-8"?>
<svg version="1.1" xmlns:xlink="http://www.w3.org/1999/xlink" width="15px" height="15px" xmlns="http://www.w3.org/2000/svg">
  <g transform="matrix(1 0 0 1 -708 -236 )">
    <path d="M 13.45703125 11.650390625  C 13.53515625 11.572265625  13.6067708333333 11.4388020833333  13.671875 11.25  L 11.25 11.25  L 11.25 13.671875  C 11.4388020833333 13.6067708333333  11.572265625 13.53515625  11.650390625 13.45703125  L 13.45703125 11.650390625  Z M 10.2734375 10.2734375  C 10.4557291666667 10.0911458333333  10.6770833333333 10  10.9375 10  L 13.75 10  L 13.75 1.25  L 1.25 1.25  L 1.25 13.75  L 10 13.75  L 10 10.9375  C 10 10.6770833333333  10.0911458333333 10.4557291666667  10.2734375 10.2734375  Z M 14.7265625 0.273437499999999  C 14.9088541666667 0.455729166666665  15 0.677083333333333  15 0.9375  L 15 10.9375  C 15 11.1979166666667  14.9348958333333 11.484375  14.8046875 11.796875  C 14.6744791666667 12.109375  14.5182291666667 12.3567708333333  14.3359375 12.5390625  L 12.5390625 14.3359375  C 12.3567708333333 14.5182291666667  12.109375 14.6744791666667  11.796875 14.8046875  C 11.484375 14.9348958333333  11.1979166666667 15  10.9375 15  L 0.9375 15  C 0.677083333333333 15  0.455729166666667 14.9088541666667  0.2734375 14.7265625  C 0.0911458333333333 14.5442708333333  0 14.3229166666667  0 14.0625  L 0 0.9375  C 0 0.677083333333333  0.0911458333333333 0.455729166666665  0.2734375 0.273437499999999  C 0.455729166666667 0.0911458333333326  0.677083333333333 0  0.9375 0  L 14.0625 0  C 14.3229166666667 0  14.5442708333333 0.0911458333333326  14.7265625 0.273437499999999  Z " fill-rule="nonzero" fill="#facd91" stroke="none" transform="matrix(1 0 0 1 708 236 )" />
  </g>
</svg>