<?xml version="1.0" encoding="utf-8"?>
<svg version="1.1" xmlns:xlink="http://www.w3.org/1999/xlink" width="16px" height="16px" xmlns="http://www.w3.org/2000/svg">
  <g transform="matrix(1 0 0 1 -449 -235 )">
    <path d="M 11.7708333333333 9.359375  C 11.8541666666667 9.52256944444444  11.8680555555556 9.69097222222222  11.8125 9.86458333333333  C 11.5555555555556 10.7048611111111  11.0763888888889 11.3819444444444  10.375 11.8958333333333  C 9.67361111111111 12.4097222222222  8.88194444444444 12.6666666666667  8 12.6666666666667  C 7.11805555555556 12.6666666666667  6.32638888888889 12.4097222222222  5.625 11.8958333333333  C 4.92361111111111 11.3819444444444  4.44444444444444 10.7048611111111  4.1875 9.86458333333333  C 4.13194444444444 9.69097222222222  4.14583333333333 9.52256944444444  4.22916666666667 9.359375  C 4.3125 9.19618055555555  4.44444444444444 9.08680555555555  4.625 9.03125  C 4.79861111111111 8.97569444444444  4.96701388888889 8.98958333333333  5.13020833333333 9.07291666666667  C 5.29340277777778 9.15625  5.40277777777778 9.28819444444444  5.45833333333333 9.46875  C 5.63194444444445 10.0243055555556  5.953125 10.4739583333333  6.421875 10.8177083333333  C 6.890625 11.1614583333333  7.41666666666667 11.3333333333333  8 11.3333333333333  C 8.58333333333333 11.3333333333333  9.109375 11.1614583333333  9.578125 10.8177083333333  C 10.046875 10.4739583333333  10.3680555555556 10.0243055555556  10.5416666666667 9.46875  C 10.5972222222222 9.28819444444444  10.7083333333333 9.15625  10.875 9.07291666666667  C 11.0416666666667 8.98958333333333  11.2118055555556 8.97569444444444  11.3854166666667 9.03125  C 11.5590277777778 9.08680555555555  11.6875 9.19618055555555  11.7708333333333 9.359375  Z M 6.27604166666667 4.390625  C 6.53645833333333 4.65104166666667  6.66666666666667 4.96527777777778  6.66666666666667 5.33333333333333  C 6.66666666666667 5.70138888888889  6.53645833333333 6.015625  6.27604166666667 6.27604166666667  C 6.015625 6.53645833333333  5.70138888888889 6.66666666666667  5.33333333333333 6.66666666666667  C 4.96527777777778 6.66666666666667  4.65104166666667 6.53645833333333  4.390625 6.27604166666667  C 4.13020833333333 6.015625  4 5.70138888888889  4 5.33333333333333  C 4 4.96527777777778  4.13020833333333 4.65104166666667  4.390625 4.390625  C 4.65104166666667 4.13020833333333  4.96527777777778 4  5.33333333333333 4  C 5.70138888888889 4  6.015625 4.13020833333333  6.27604166666667 4.390625  Z M 11.609375 4.390625  C 11.8697916666667 4.65104166666667  12 4.96527777777778  12 5.33333333333333  C 12 5.70138888888889  11.8697916666667 6.015625  11.609375 6.27604166666667  C 11.3489583333333 6.53645833333333  11.0347222222222 6.66666666666667  10.6666666666667 6.66666666666667  C 10.2986111111111 6.66666666666667  9.984375 6.53645833333333  9.72395833333333 6.27604166666667  C 9.46354166666667 6.015625  9.33333333333333 5.70138888888889  9.33333333333333 5.33333333333333  C 9.33333333333333 4.96527777777778  9.46354166666667 4.65104166666667  9.72395833333333 4.390625  C 9.984375 4.13020833333333  10.2986111111111 4  10.6666666666667 4  C 11.0347222222222 4  11.3489583333333 4.13020833333333  11.609375 4.390625  Z M 14.1354166666667 10.5885416666667  C 14.4895833333333 9.765625  14.6666666666667 8.90277777777778  14.6666666666667 8  C 14.6666666666667 7.09722222222222  14.4895833333333 6.234375  14.1354166666667 5.41145833333333  C 13.78125 4.58854166666667  13.3072916666667 3.88020833333333  12.7135416666667 3.28645833333333  C 12.1197916666667 2.69270833333333  11.4114583333333 2.21875  10.5885416666667 1.86458333333333  C 9.765625 1.51041666666667  8.90277777777778 1.33333333333333  8 1.33333333333333  C 7.09722222222222 1.33333333333333  6.234375 1.51041666666667  5.41145833333333 1.86458333333333  C 4.58854166666667 2.21875  3.88020833333333 2.69270833333333  3.28645833333333 3.28645833333333  C 2.69270833333333 3.88020833333333  2.21875 4.58854166666667  1.86458333333333 5.41145833333333  C 1.51041666666667 6.234375  1.33333333333333 7.09722222222222  1.33333333333333 8  C 1.33333333333333 8.90277777777778  1.51041666666667 9.765625  1.86458333333333 10.5885416666667  C 2.21875 11.4114583333333  2.69270833333333 12.1197916666667  3.28645833333333 12.7135416666667  C 3.88020833333333 13.3072916666667  4.58854166666667 13.78125  5.41145833333333 14.1354166666667  C 6.234375 14.4895833333333  7.09722222222222 14.6666666666667  8 14.6666666666667  C 8.90277777777778 14.6666666666667  9.765625 14.4895833333333  10.5885416666667 14.1354166666667  C 11.4114583333333 13.78125  12.1197916666667 13.3072916666667  12.7135416666667 12.7135416666667  C 13.3072916666667 12.1197916666667  13.78125 11.4114583333333  14.1354166666667 10.5885416666667  Z M 14.9270833333333 3.984375  C 15.6423611111111 5.21006944444444  16 6.54861111111111  16 8  C 16 9.45138888888889  15.6423611111111 10.7899305555556  14.9270833333333 12.015625  C 14.2118055555556 13.2413194444444  13.2413194444444 14.2118055555556  12.015625 14.9270833333333  C 10.7899305555556 15.6423611111111  9.45138888888889 16  8 16  C 6.54861111111111 16  5.21006944444444 15.6423611111111  3.984375 14.9270833333333  C 2.75868055555556 14.2118055555556  1.78819444444444 13.2413194444444  1.07291666666667 12.015625  C 0.357638888888889 10.7899305555556  0 9.45138888888889  0 8  C 0 6.54861111111111  0.357638888888889 5.21006944444444  1.07291666666667 3.984375  C 1.78819444444444 2.75868055555556  2.75868055555556 1.78819444444444  3.984375 1.07291666666667  C 5.21006944444444 0.357638888888888  6.54861111111111 0  8 0  C 9.45138888888889 0  10.7899305555556 0.357638888888888  12.015625 1.07291666666667  C 13.2413194444444 1.78819444444444  14.2118055555556 2.75868055555556  14.9270833333333 3.984375  Z " fill-rule="nonzero" fill="#f59a23" stroke="none" transform="matrix(1 0 0 1 449 235 )" />
  </g>
</svg>