<?xml version="1.0" encoding="utf-8"?>
<svg version="1.1" xmlns:xlink="http://www.w3.org/1999/xlink" width="17px" height="13px" xmlns="http://www.w3.org/2000/svg">
  <g transform="matrix(1 0 0 1 -16 -122 )">
    <path d="M 15.2510042613636 5.73971507352941  C 16.4227485795455 4.95094485294118  17.1594474431818 4.07007536764706  16.8995454545455 3.17735294117647  C 16.6365525568182 2.27399632352941  15.5016818181818 1.83500735294118  13.5268806818182 1.87147426470588  C 13.4668011363636 1.87259742647059  13.4020852272727 1.87725735294118  13.3408465909091 1.87916911764706  C 12.1550482954545 0.721428308823529  10.5279985795455 0.00523345588235212  8.73457102272728 0.00523345588235212  C 5.62441619318182 0.00523345588235212  3.01460227272727 2.1579044117647  2.34182244318182 5.03630514705882  C 2.31352130681818 5.05288970588235  2.28220170454546 5.06921139705882  2.25433522727273 5.08579595588235  C 0.562448863636365 6.09449080882353  -0.16212784090909 7.06399448529412  0.100889204545456 7.96713602941176  C 0.332127840909092 8.76154595588235  1.23935795454546 9.19577941176471  2.79739346590909 9.26429227941176  C 3.84868892045455 11.4667408088235  6.11427698863637 12.9947904411765  8.73457102272728 12.9947904411765  C 12.353421875 12.9947904411765  15.2974644886364 10.0812849264706  15.2974644886364 6.50002389705882  C 15.2974644886364 6.24270036764706  15.2805610795455 5.98934375  15.2510042613636 5.73971507352941  Z M 4.17915056818182 4.11222977941177  C 5.04634375 2.49858088235294  6.762546875 1.39695036764706  8.73457102272728 1.39695036764706  C 9.665828125 1.39695036764706  10.5393963068182 1.64380698529412  11.2942784090909 2.07287867647059  C 11.8530903282322 2.390675008504  12.3472525258336 2.80862205601518  12.7515213068182 3.30536948529412  C 13.1686491477273 3.81803308823529  13.4874474431818 4.41163602941177  13.6802911931818 5.05852941176471  C 12.5630482954545 5.67557536764706  10.9595184659091 6.36385845588235  8.90157670454545 6.95069852941177  C 6.80712357954545 7.54802941176471  5.05211505681818 7.80960661764706  3.76818039772727 7.8695643382353  C 3.645171875 7.43339522058824  3.57799289772727 6.97440441176471  3.57799289772727 6.49997610294118  C 3.57799289772727 6.30710294117647  3.58987357954546 6.11697794117647  3.61100284090909 5.92964889705882  C 3.68263258509914 5.29375580028351  3.87541829054492 4.67706332776738  4.17915056818182 4.11222977941177  Z M 2.31228977272727 7.83742279411764  C 1.8668125 7.78511213235294  1.57530113636364 7.69222426470588  1.46142045454545 7.57931066176471  C 1.50140909090909 7.40459926470588  1.74571164772727 7.13317647058823  2.17952556818182 6.80772242647059  C 2.19588447384785 7.15391708649723  2.24028162033729 7.49825506689771  2.31228977272727 7.83742279411764  Z M 13.8904247159091 6.52831801470588  C 13.8748494318182 9.329125  11.5683309659091 11.6030496323529  8.73457102272728 11.6030496323529  C 6.90286931818182 11.6030496323529  5.29233664772728 10.6522334558824  4.37733096590909 9.22390625  C 5.83773721590909 9.10786213235294  7.54382244318182 8.78620772058823  9.29093465909091 8.28809742647059  C 10.6581548295455 7.89826470588235  12.4081647727273 7.28014338235294  13.8904247159091 6.52831801470588  Z M 15.5389900568182 3.5651544117647  C 15.5015852272727 3.72837132352941  15.2822514204545 3.97706801470588  14.9003792613636 4.27432352941176  C 14.7726619318182 3.92889154411765  14.6145909090909 3.5980606617647  14.4320823863636 3.28273897058823  C 15.023484375 3.32623161764706  15.4045838068182 3.43178492647059  15.5389900568182 3.5651544117647  Z M 9.47274289772727 3.58305330882353  C 10.1542883522727 3.76691727941177  10.7339303977273 4.1978768382353  11.1055639204545 4.77324632352941  L 12.3638536931818 4.1511580882353  C 11.8248522727273 3.24880514705882  10.9536747159091 2.5650625  9.91805113636363 2.26395955882353  L 9.47274289772727 3.58305330882353  Z " fill-rule="nonzero" fill="#c280ff" stroke="none" transform="matrix(1 0 0 1 16 122 )" />
  </g>
</svg>