<?xml version="1.0" encoding="utf-8"?>
<svg version="1.1" xmlns:xlink="http://www.w3.org/1999/xlink" width="15px" height="15px" xmlns="http://www.w3.org/2000/svg">
  <g transform="matrix(1 0 0 1 -17 -75 )">
    <path d="M 14.8849901574803 7.49994047619048  C 14.8849901574803 3.37395833333333  11.567125984252 0.0297619047619048  7.47363188976378 0.0297619047619048  C 3.38010826771654 0.0297619047619048  0.0622736220472441 3.37395833333333  0.0622736220472441 7.49994047619048  C 0.0622736220472441 11.6259226190476  3.38010826771654 14.9702380952381  7.47363188976378 14.9702380952381  C 11.567155511811 14.9702380952381  14.8849901574803 11.6258928571429  14.8849901574803 7.49994047619048  Z M 0.679901574803152 7.5  C 0.679872047244094 3.72410714285714  3.72752952755906 0.652291666666667  7.47363188976378 0.652291666666667  C 11.2197342519685 0.652291666666667  14.2673917322835 3.72413690476191  14.2673917322835 7.49997023809524  C 14.2673917322835 9.16113095238095  13.6769291338583 10.6857738095238  12.6968208661417 11.8727678571429  C 12.0194881889764 11.5876488095238  10.4205708661417 11.0283630952381  9.43080708661418 10.7338095238095  C 9.34638779527559 10.7070833333333  9.33310039370079 10.7027976190476  9.33310039370079 10.3486904761905  C 9.33310039370079 10.05625  9.45250984251969 9.76175595238095  9.56893700787402 9.5125  C 9.69499015748032 9.24166666666666  9.84454724409449 8.78633928571428  9.89825787401575 8.37779761904762  C 10.0484350393701 8.20208333333333  10.2528838582677 7.85556547619048  10.3843700787402 7.19508928571428  C 10.4995570866142 6.61297619047619  10.445875984252 6.40113095238095  10.369311023622 6.20232142857143  C 10.3614566929134 6.18133928571428  10.3530118110236 6.16068452380952  10.3469881889764 6.14  C 10.3180216535433 6.0035119047619  10.3578248031496 5.294375  10.4567716535433 4.74419642857143  C 10.5249212598425 4.36666666666667  10.4392618110236 3.56389880952381  9.92359251968504 2.89979166666667  C 9.59790354330709 2.48  8.97484251968504 1.96479166666667  7.83673228346457 1.89306547619048  L 7.21249015748032 1.89366071428571  C 6.09366141732284 1.96482142857143  5.47000984251969 2.48  5.14432086614174 2.89979166666667  C 4.62865157480315 3.56392857142857  4.54302165354331 4.36669642857143  4.61117125984252 4.74392857142857  C 4.71067913385827 5.294375  4.74989173228347 6.0035119047619  4.72154527559055 6.1372619047619  C 4.71552165354331 6.16065476190476  4.70707677165355 6.18133928571428  4.69863188976378 6.20232142857143  C 4.62262795275591 6.40113095238095  4.5683562992126 6.61297619047619  4.68416338582677 7.19508928571428  C 4.81502952755906 7.85556547619048  5.01950787401575 8.20211309523809  5.17027559055118 8.37779761904762  C 5.22336614173229 8.78630952380952  5.37295275590551 9.24166666666667  5.49959645669292 9.5125  C 5.59187007874016 9.71068452380952  5.63530511811024 9.98029761904762  5.63530511811024 10.3614583333333  C 5.63530511811024 10.7155654761905  5.62201771653544 10.7198511904762  5.54300196850394 10.7450595238095  C 4.51948818897638 11.0496428571429  2.89042322834646 11.6429761904762  2.28304133858268 11.9110714285714  C 1.28365157480315 10.718630952381  0.679901574803152 9.179375  0.679901574803152 7.5  Z M 7.47363188976378 14.3477380952381  C 5.62984251968504 14.3477380952381  3.95613188976378 13.6024404761905  2.73053149606299 12.3963095238095  C 3.42596456692913 12.1101488095238  4.81257874015748 11.6116369047619  5.72329724409449 11.340505952381  C 6.25287401574803 11.1721130952381  6.25287401574803 10.7225595238095  6.25287401574803 10.3614583333333  C 6.25287401574803 10.0620535714286  6.23238188976378 9.62068452380952  6.05867125984252 9.24744047619048  C 5.93923228346457 8.99181547619048  5.80290354330709 8.55348214285714  5.77278543307087 8.21032738095238  C 5.76614173228347 8.13008928571429  5.72875984251969 8.05592261904762  5.66843503937008 8.00303571428572  C 5.58097440944882 7.92580357142857  5.40304133858268 7.643125  5.28965551181102 7.07291666666667  C 5.1998031496063 6.62151785714286  5.23780511811024 6.5227380952381  5.27459645669292 6.42729166666667  C 5.29027559055118 6.38654761904762  5.30536417322835 6.34642857142857  5.31744094488189 6.30113095238095  C 5.39161417322835 6.02788690476191  5.30896653543307 5.13026785714286  5.21911417322835 4.63238095238095  C 5.1799311023622 4.41595238095238  5.22936023622047 3.80104166666667  5.6310531496063 3.28306547619048  C 5.99111220472441 2.81892857142857  6.53633858267717 2.5602380952381  7.23177165354331 2.51556547619048  L 7.81742125984252 2.51494047619048  C 8.53154527559055 2.5602380952381  9.07677165354331 2.81892857142857  9.43745078740158 3.28306547619048  C 9.8391437007874 3.80104166666667  9.88801181102362 4.41595238095238  9.84876968503937 4.63264880952381  C 9.75950787401575 5.13026785714286  9.67626968503937 6.02785714285714  9.75044291338583 6.30080357142857  C 9.76313976377953 6.34639880952381  9.77757874015748 6.38651785714286  9.7932874015748 6.4272619047619  C 9.83010826771654 6.52267857142857  9.86808070866142 6.6214880952381  9.7788188976378 7.07288690476191  C 9.6654625984252 7.643125  9.4869094488189 7.92580357142857  9.39944881889764 8.00300595238095  C 9.33974409448819 8.05589285714286  9.30236220472441 8.13005952380952  9.29509842519685 8.21029761904762  C 9.26554133858268 8.55345238095238  9.12924212598425 8.99178571428571  9.00983267716536 9.24741071428571  C 8.87291338582677 9.54074404761905  8.71550196850394 9.93133928571429  8.71550196850394 10.3486607142857  C 8.71550196850394 10.7097916666667  8.71550196850394 11.1593452380952  9.25048228346457 11.329255952381  C 10.1220177165354 11.5888392857143  11.5152755905512 12.0712202380952  12.2511023622047 12.3628869047619  C 11.0225196850394 13.5890476190476  9.3343405511811 14.3477380952381  7.47363188976378 14.3477380952381  Z " fill-rule="nonzero" fill="#c280ff" stroke="none" transform="matrix(1 0 0 1 17 75 )" />
  </g>
</svg>