<?xml version="1.0" encoding="utf-8"?>
<svg version="1.1" xmlns:xlink="http://www.w3.org/1999/xlink" width="25px" height="19px" xmlns="http://www.w3.org/2000/svg">
  <g transform="matrix(1 0 0 1 -696 -340 )">
    <path d="M 24.8674665178571 12.3485863095238  C 24.9558221726191 12.4381200396825  25 12.5441468253968  25 12.6666666666667  L 25 15.3809523809524  C 25 15.5034722222222  24.9558221726191 15.6094990079365  24.8674665178571 15.6990327380952  C 24.7791108630952 15.788566468254  24.6744791666667 15.8333333333333  24.5535714285714 15.8333333333333  L 5.35714285714286 15.8333333333333  L 5.35714285714286 18.547619047619  C 5.35714285714286 18.6701388888889  5.31296502976191 18.7761656746032  5.224609375 18.8656994047619  C 5.13625372023809 18.9552331349206  5.03162202380952 19  4.91071428571429 19  C 4.79910714285714 19  4.6875 18.952876984127  4.57589285714286 18.858630952381  L 0.125558035714286 14.3348214285714  C 0.0418526785714286 14.25  0 14.1463293650794  0 14.0238095238095  C 0 13.8918650793651  0.0418526785714286 13.7834821428571  0.125558035714286 13.6986607142857  L 4.58984375 9.17485119047619  C 4.67354910714286 9.09002976190476  4.78050595238095 9.04761904761905  4.91071428571429 9.04761904761905  C 5.03162202380952 9.04761904761905  5.13625372023809 9.09238591269841  5.224609375 9.18191964285714  C 5.31296502976191 9.27145337301587  5.35714285714286 9.37748015873016  5.35714285714286 9.5  L 5.35714285714286 12  L 24.5535714285714 12  C 24.6744791666667 12.2142857142857  24.7791108630952 12.2590525793651  24.8674665178571 12.3485863095238  Z M 24.8744419642857 4.65104166666667  C 24.9581473214286 4.73586309523809  25 4.84424603174603  25 4.97619047619048  C 25 5.10813492063492  24.9581473214286 5.21651785714286  24.8744419642857 5.30133928571428  L 20.41015625 9.82514880952381  C 20.3264508928571 9.90997023809524  20.2194940476191 9.95238095238095  20.0892857142857 9.95238095238095  C 19.9683779761905 9.95238095238095  19.8637462797619 9.90761408730159  19.775390625 9.81808035714286  C 19.6870349702381 9.72854662698413  19.6428571428571 9.62251984126984  19.6428571428571 9.5  L 19.6428571428571 7  L 0.446428571428571 7  C 0.325520833333333 6.78571428571428  0.220889136904762 6.74094742063492  0.132533482142857 6.65141369047619  C 0.0441778273809524 6.56187996031746  0 6.45585317460317  0 6.33333333333333  L 0 3.61904761904762  C 0 3.49652777777778  0.0441778273809524 3.39050099206349  0.132533482142857 3.30096726190476  C 0.220889136904762 3.21143353174603  0.325520833333333 3.16666666666667  0.446428571428571 3.16666666666667  L 19.6428571428571 3.16666666666667  L 19.6428571428571 0.452380952380953  C 19.6428571428571 0.320436507936507  19.6847098214286 0.212053571428572  19.7684151785714 0.127232142857143  C 19.8521205357143 0.0424107142857152  19.9590773809524 0  20.0892857142857 0  C 20.2008928571429 0  20.3125 0.0471230158730157  20.4241071428571 0.141369047619047  L 24.8744419642857 4.65104166666667  Z " fill-rule="nonzero" fill="#000000" stroke="none" transform="matrix(1 0 0 1 696 340 )" />
  </g>
</svg>