<?xml version="1.0" encoding="utf-8"?>
<svg version="1.1" xmlns:xlink="http://www.w3.org/1999/xlink" width="92px" height="111px" xmlns="http://www.w3.org/2000/svg">
  <g transform="matrix(1 0 0 1 -180 -184 )">
    <path d="M 90.2193548387097 56.8485981308411  C 93.3849462365591 35.2710280373832  88.636559139785 18.6728971962617  76.7655913978495 9.54392523364486  C 71.2258064516129 4.56448598130841  63.3118279569893 1.24485981308411  54.6064516129032 1.24485981308411  C 46.6924731182796 -0.414953271028038  36.4043010752688 1.24485981308411  26.1161290322581 5.39439252336448  L 25.3247311827957 5.39439252336448  C 20.5763440860215 7.05420560747664  16.6193548387097 11.203738317757  13.4537634408602 16.1831775700935  C 10.2881720430107 21.1626168224299  8.70537634408602 26.1420560747664  9.49677419354838 30.2915887850467  L 9.49677419354838 31.9514018691589  C 10.2881720430107 39.4205607476636  10.2881720430107 44.4  7.91397849462365 49.3794392523365  C 7.12258064516129 51.8691588785047  5.53978494623655 53.5289719626168  4.74838709677418 56.0186915887851  C 1.58279569892472 59.3383177570094  0 61.8280373831776  1.58279569892472 65.1476635514019  C 3.16559139784945 67.6373831775701  4.74838709677418 67.6373831775701  7.12258064516128 67.6373831775701  C 8.70537634408601 67.6373831775701  10.2881720430107 67.6373831775701  11.0795698924731 68.4672897196262  C 11.8709677419355 69.2971962616823  11.8709677419355 70.1271028037383  11.0795698924731 70.1271028037383  C 10.2881720430107 70.9570093457944  10.2881720430107 71.7869158878505  11.0795698924731 73.4467289719626  C 11.8709677419355 74.2766355140187  12.6623655913978 75.1065420560748  13.4537634408602 75.1065420560748  L 14.2451612903226 75.1065420560748  C 16.6193548387097 75.9364485981308  23.741935483871 80.9158878504673  25.3247311827957 83.4056074766355  L 25.3247311827957 84.2355140186916  C 25.3247311827957 85.0654205607477  22.9505376344086 85.8953271028037  19.7849462365591 86.7252336448598  C 18.9935483870968 86.7252336448598  18.2021505376344 87.5551401869159  17.410752688172 87.5551401869159  C 16.6193548387097 88.385046728972  15.8279569892473 89.214953271028  15.8279569892473 90.0448598130841  C 15.8279569892473 90.8747663551402  15.8279569892473 92.5345794392524  17.410752688172 93.3644859813084  L 18.2021505376344 94.1943925233645  C 18.9935483870967 97.5140186915888  19.7849462365591 100.003738317757  26.116129032258 100.833644859813  C 29.2817204301075 100.833644859813  30.8645161290322 100.833644859813  32.447311827957 100.003738317757  C 34.0301075268817 99.1738317757009  36.4043010752688 98.3439252336449  40.3612903225806 98.3439252336449  C 47.4838709677419 98.3439252336449  52.2322580645161 110.792523364486  52.2322580645161 110.792523364486  L 56.9806451612903 109.132710280374  C 56.1892473118279 107.472897196262  51.4408602150537 92.5345794392524  40.3612903225806 92.5345794392524  C 35.6129032258064 92.5345794392524  32.447311827957 93.3644859813084  30.8645161290322 94.1943925233645  C 29.2817204301075 95.0242990654206  28.4903225806451 95.0242990654206  26.1161290322581 95.0242990654206  C 24.5333333333333 95.0242990654206  23.741935483871 94.1943925233645  23.741935483871 94.1943925233645  C 23.741935483871 94.1943925233645  22.9505376344086 93.3644859813084  22.9505376344086 92.5345794392524  L 22.9505376344086 91.7046728971963  C 26.9075268817204 90.0448598130842  30.0731182795699 89.2149532710281  30.8645161290322 85.0654205607477  C 30.8645161290322 84.2355140186916  30.8645161290322 81.7457943925234  30.0731182795699 80.0859813084112  C 27.6989247311828 77.596261682243  19.7849462365591 71.7869158878505  15.8279569892473 70.1271028037384  C 15.8279569892473 67.6373831775701  15.0365591397849 65.977570093458  13.4537634408602 64.3177570093458  C 11.8709677419355 61.8280373831776  8.70537634408602 61.8280373831776  7.12258064516129 61.8280373831776  L 6.33118279569892 61.8280373831776  C 7.12258064516129 60.9981308411215  7.91397849462366 59.3383177570094  8.70537634408602 58.5084112149533  C 10.2881720430108 56.8485981308412  11.8709677419355 54.3588785046729  12.6623655913978 51.8691588785047  C 15.8279569892473 45.2299065420561  15.0365591397849 39.4205607476636  14.2451612903226 31.9514018691589  L 14.2451612903226 30.2915887850468  C 13.4537634408602 23.6523364485982  18.9935483870968 12.8635514018692  27.6989247311828 10.373831775701  L 28.4903225806452 10.373831775701  C 47.4838709677419 2.9046728971963  63.3118279569893 4.56448598130845  74.3913978494624 13.6934579439253  C 84.6795698924731 21.992523364486  88.6365591397849 36.9308411214954  85.4709677419355 56.0186915887851  C 85.4709677419355 57.6785046728972  86.2623655913978 58.5084112149533  87.8451612903226 59.3383177570094  C 89.4279569892473 59.3383177570094  90.2193548387097 58.5084112149533  90.2193548387097 56.8485981308411  Z " fill-rule="nonzero" fill="#a981dd" stroke="none" transform="matrix(1 0 0 1 180 184 )" />
  </g>
</svg>