<?xml version="1.0" encoding="utf-8"?>
<svg version="1.1" xmlns:xlink="http://www.w3.org/1999/xlink" width="92px" height="111px" xmlns="http://www.w3.org/2000/svg">
  <g transform="matrix(1 0 0 1 -41 -184 )">
    <path d="M 1.78064516129032 56.8485981308411  C -1.38494623655915 35.2710280373832  3.36344086021505 18.6728971962617  15.2344086021505 9.54392523364486  C 20.7741935483871 4.56448598130841  28.6881720430107 1.24485981308411  37.3935483870968 1.24485981308411  C 45.3075268817204 -0.414953271028038  55.5956989247312 1.24485981308411  65.883870967742 5.39439252336448  L 66.6752688172043 5.39439252336448  C 71.4236559139785 7.05420560747664  75.3806451612903 11.203738317757  78.5462365591398 16.1831775700935  C 81.7118279569893 21.1626168224299  83.294623655914 26.1420560747664  82.5032258064516 30.2915887850467  L 82.5032258064516 31.9514018691589  C 81.7118279569893 39.4205607476636  81.7118279569893 44.4  84.0860215053764 49.3794392523365  C 84.8774193548387 51.8691588785047  86.4602150537634 53.5289719626168  87.2516129032258 56.0186915887851  C 90.4172043010753 59.3383177570094  92 61.8280373831776  90.4172043010753 65.1476635514019  C 88.8344086021505 67.6373831775701  87.2516129032258 67.6373831775701  84.8774193548387 67.6373831775701  C 83.294623655914 67.6373831775701  81.7118279569893 67.6373831775701  80.9204301075269 68.4672897196262  C 80.1290322580645 69.2971962616823  80.1290322580645 70.1271028037383  80.9204301075269 70.1271028037383  C 81.7118279569893 70.9570093457944  81.7118279569893 71.7869158878505  80.9204301075269 73.4467289719626  C 80.1290322580645 74.2766355140187  79.3376344086022 75.1065420560748  78.5462365591398 75.1065420560748  L 77.7548387096774 75.1065420560748  C 75.3806451612903 75.9364485981308  68.2580645161291 80.9158878504673  66.6752688172043 83.4056074766355  L 66.6752688172043 84.2355140186916  C 66.6752688172043 85.0654205607477  69.0494623655914 85.8953271028037  72.2150537634409 86.7252336448598  C 73.0064516129032 86.7252336448598  73.7978494623656 87.5551401869159  74.589247311828 87.5551401869159  C 75.3806451612903 88.385046728972  76.1720430107527 89.214953271028  76.1720430107527 90.0448598130841  C 76.1720430107527 90.8747663551402  76.1720430107527 92.5345794392524  74.589247311828 93.3644859813084  L 73.7978494623656 94.1943925233645  C 73.0064516129032 97.5140186915888  72.2150537634409 100.003738317757  65.883870967742 100.833644859813  C 62.7182795698925 100.833644859813  61.1354838709678 100.833644859813  59.552688172043 100.003738317757  C 57.9698924731183 99.1738317757009  55.5956989247312 98.3439252336449  51.6387096774194 98.3439252336449  C 44.5161290322581 98.3439252336449  39.7677419354839 110.792523364486  39.7677419354839 110.792523364486  L 35.0193548387097 109.132710280374  C 35.8107526881721 107.472897196262  40.5591397849463 92.5345794392524  51.6387096774194 92.5345794392524  C 56.3870967741936 92.5345794392524  59.552688172043 93.3644859813084  61.1354838709678 94.1943925233645  C 62.7182795698925 95.0242990654206  63.5096774193549 95.0242990654206  65.883870967742 95.0242990654206  C 67.4666666666667 95.0242990654206  68.2580645161291 94.1943925233645  68.2580645161291 94.1943925233645  C 68.2580645161291 94.1943925233645  69.0494623655914 93.3644859813084  69.0494623655914 92.5345794392524  L 69.0494623655914 91.7046728971963  C 65.0924731182796 90.0448598130842  61.9268817204301 89.2149532710281  61.1354838709678 85.0654205607477  C 61.1354838709678 84.2355140186916  61.1354838709678 81.7457943925234  61.9268817204301 80.0859813084112  C 64.3010752688172 77.596261682243  72.2150537634409 71.7869158878505  76.1720430107527 70.1271028037384  C 76.1720430107527 67.6373831775701  76.9634408602151 65.977570093458  78.5462365591398 64.3177570093458  C 80.1290322580645 61.8280373831776  83.294623655914 61.8280373831776  84.8774193548387 61.8280373831776  L 85.6688172043011 61.8280373831776  C 84.8774193548387 60.9981308411215  84.0860215053763 59.3383177570094  83.294623655914 58.5084112149533  C 81.7118279569893 56.8485981308412  80.1290322580645 54.3588785046729  79.3376344086022 51.8691588785047  C 76.1720430107527 45.2299065420561  76.9634408602151 39.4205607476636  77.7548387096774 31.9514018691589  L 77.7548387096774 30.2915887850468  C 78.5462365591398 23.6523364485982  73.0064516129032 12.8635514018692  64.3010752688172 10.373831775701  L 63.5096774193548 10.373831775701  C 44.5161290322581 2.9046728971963  28.6881720430107 4.56448598130845  17.6086021505376 13.6934579439253  C 7.32043010752688 21.992523364486  3.36344086021506 36.9308411214954  6.52903225806452 56.0186915887851  C 6.52903225806452 57.6785046728972  5.73763440860216 58.5084112149533  4.15483870967742 59.3383177570094  C 2.5720430107527 59.3383177570094  1.78064516129032 58.5084112149533  1.78064516129032 56.8485981308411  Z " fill-rule="nonzero" fill="#a981dd" stroke="none" transform="matrix(1 0 0 1 41 184 )" />
  </g>
</svg>