<?xml version="1.0" encoding="utf-8"?>
<svg version="1.1" xmlns:xlink="http://www.w3.org/1999/xlink" width="21px" height="22px" xmlns="http://www.w3.org/2000/svg">
  <g transform="matrix(1 0 0 1 -377 -340 )">
    <path d="M 19.3248394953704 9.63306665588235  C 19.3276049166667 12.0666980176471  18.0720987546296 14.6162823529412  16.3893333333333 16.3845647058824  L 20.6881975416667 20.7051921676471  C 20.8817777777778 20.8984470588235  21.0795061944444 21.2946196294118  20.6881975416667 21.6866509911765  C 20.2968888888889 22.0800627558824  19.7963456898148 21.7722352941177  19.712 21.6866509911765  L 15.4117530972222 17.3660235294118  C 13.8036543425926 18.5048470588235  11.7240493935185 19.1826195970588  9.74814814814815 19.1812392264706  C 9.74584331521991 19.181240889235  9.74353848175804 19.1812417206173  9.74123364822801 19.1812417206173  C 4.45837387296656 19.1812417206173  0.175128355232848 14.9070471802149  0.172839495370371 9.63306665588235  C 0.175891485888112 4.35962555370539  4.45891311838657 0.0862720259372244  9.74123294921835 0.0862720259372244  C 9.74353801575402 0.0862720259372244  9.74584308221447 0.0862728574876158  9.74814814814815 0.086274520588235  C 15.037037037037 0.086274520588235  19.3248394953704 4.35996863823529  19.3248394953704 9.63306665588235  Z M 17.7997037037037 9.63030588235294  C 17.7966500470338 5.19385413781104  14.1920691249137 1.59965723008508  9.74814814814815 1.60194510882353  C 5.30422717138257 1.59965723008508  1.69964624926246 5.19385413781104  1.69659259259259 9.63030588235294  C 1.70040933861112 14.0667577916128  5.30560960313864 17.660337036503  9.749530875 17.6572862852941  C 9.75137484509104 17.6572875511723  9.75321881556298 17.6572881841115  9.75506278609 17.6572881841115  C 14.1963767493678 17.6572881841115  17.7974146296986 14.0641548635068  17.7997037037037 9.63030588235294  Z M 10.4574814814815 10.3784784205882  L 10.4588642083333 10.3784784205882  L 10.4588642083333 14.1234823529412  C 10.4589532602092 14.1280937551333  10.4589977892495 14.1327059070912  10.4589977892495 14.1373181661668  C 10.4589977892495 14.531109565745  10.1412022321037 14.8513768956022  9.7467654212963 14.8550901852941  C 9.35191482378205 14.8498505146475  9.03458091762181 14.5288109333032  9.03458091762181 14.1345891280132  C 9.03458091762181 14.1308867047085  9.03460950148572 14.1271843363885  9.03466666666667 14.1234823529412  L 9.03466666666667 10.3784784205882  L 5.2612345787037 10.3784784205882  C 4.86222589874261 10.3784784205882  4.53876545370371 10.0555616065494  4.53876545370371 9.65722352941177  C 4.53876545370371 9.25888545227414  4.86222589874261 8.9359686382353  5.2612345787037 8.9359686382353  L 9.03328393981482 8.9359686382353  L 9.03328393981482 5.29311371470588  C 9.03319488793893 5.28850231251373  9.0331503588987 5.28389016055591  9.0331503588987 5.2792779014803  C 9.0331503588987 4.88548650190204  9.35094591604444 4.56521917204487  9.74538272685185 4.56150588235294  C 10.1380740740741 4.56150588235294  10.4574814814815 4.88727842058823  10.4574814814815 5.29311371470588  L 10.4574814814815 8.93596863823529  L 13.9751111111111 8.93596863823529  C 14.3741197910722 8.93596863823529  14.6975802361111 9.25888545227413  14.6975802361111 9.65722352941176  C 14.6975802361111 10.0555616065494  14.3741197910722 10.3784784205882  13.9751111111111 10.3784784205882  L 10.4574814814815 10.3784784205882  Z " fill-rule="nonzero" fill="#ffffff" stroke="none" transform="matrix(1 0 0 1 377 340 )" />
  </g>
</svg>