<?xml version="1.0" encoding="utf-8"?>
<svg version="1.1" xmlns:xlink="http://www.w3.org/1999/xlink" width="46px" height="46px" xmlns="http://www.w3.org/2000/svg">
  <g transform="matrix(1 0 0 1 -937 -203 )">
    <path d="M 37.12482140625 20.2503571875  C 37.1247420410156 29.5696823291016  29.5696029638672 37.1247420410156  20.2504365527344 37.1247420410156  C 10.9304764013672 37.1247420410156  3.37533732421875 29.5696823291016  3.37533732421875 20.2503571875  C 3.37533732421875 10.9304764453125  10.9304764013672 3.37525795898438  20.2504365527344 3.37525795898438  C 29.5696823291016 3.37525795898438  37.12482140625 10.9304764013672  37.12482140625 20.2503571875  Z M 32.4410685644531 36.4186230908203  L 36.4185437255859 32.4411479296875  C 42.8225089306641 23.9486708935547  41.5637027490234 11.9488561083984  33.5369975097656 4.96926426269531  C 25.5110066455078 -2.01024817382813  13.4523750585938 -1.58972005371094  5.93168466796875 5.93168466796875  C -1.58972005371094 13.4524544677734  -2.01024817382813 25.5110860107422  4.96926426269531 33.5369975097656  C 11.9488561083984 41.5637027490234  23.9485915283203 42.8225883398437  32.4410685644531 36.4186230908203  Z M 36.4184643603516 32.4411479296875  L 32.4410685644531 36.4186230908203  L 40.1986135986328 44.1760887597656  C 41.2966063037109 45.2741608300781  43.0779373242188 45.2741608300781  44.1760093945312 44.1760887597656  C 45.2740020996094 43.0780960546875  45.2740020996094 41.2967650341797  44.1760093945312 40.1986135986328  L 36.4184643603516 32.4411479296875  Z " fill-rule="nonzero" fill="#ffffff" stroke="none" transform="matrix(1 0 0 1 937 203 )" />
  </g>
</svg>