<?xml version="1.0" encoding="utf-8"?>
<svg version="1.1" xmlns:xlink="http://www.w3.org/1999/xlink" width="16px" height="16px" xmlns="http://www.w3.org/2000/svg">
  <g transform="matrix(1 0 0 1 -87 -102 )">
    <path d="M 0 13.6  L 0 2.4  C 0 1.0745166004061  1.0745166004061 0  2.4 0  L 13.6 0  C 14.9254833995939 0  16 1.0745166004061  16 2.4  L 16 13.6  C 16 14.9254833995939  14.9254833995939 16  13.6 16  L 2.4 16  C 1.0745166004061 16  0 14.9254833995939  0 13.6  Z M 2.4 1.6  C 1.95817220013537 1.6  1.6 1.95817220013537  1.6 2.4  L 1.6 13.6  C 1.6 14.0418277998646  1.95817220013537 14.4  2.4 14.4  L 13.6 14.4  C 14.0418277998646 14.4  14.4 14.0418277998646  14.4 13.6  L 14.4 2.4  C 14.4 1.95817220013537  14.0418277998646 1.6  13.6 1.6  L 2.4 1.6  Z M 2.4 14.4  L 2.8 14.4  L 14.4 2.8  L 14.4 2.4092  C 14.4 2.4092  14.4 2.0668  14.164 1.8316  C 13.928 1.596  13.6012 1.6  13.6012 1.6  L 13.2 1.6  L 1.6 13.2  L 1.6 13.6  C 1.6 13.6  1.598 13.8936  1.808 14.1468  C 2.0172 14.4  2.4 14.4  2.4 14.4  Z M 1.6 6.8  L 1.6 8.8  L 8.8 1.6  L 6.8 1.6  L 1.6 6.8  Z M 14.4 9.2  L 14.4 7.2  L 7.2 14.4  L 9.2 14.4  L 14.4 9.2  Z " fill-rule="nonzero" fill="#ffffff" stroke="none" transform="matrix(1 0 0 1 87 102 )" />
  </g>
</svg>