<?xml version="1.0" encoding="utf-8"?>
<svg version="1.1" xmlns:xlink="http://www.w3.org/1999/xlink" width="16px" height="13px" xmlns="http://www.w3.org/2000/svg">
  <g transform="matrix(1 0 0 1 -86 -271 )">
    <path d="M 4.86666666666667 2.640625  C 5.17777777777778 2.95659722222222  5.33333333333333 3.34027777777778  5.33333333333333 3.79166666666667  C 5.33333333333333 4.24305555555556  5.17777777777778 4.62673611111111  4.86666666666667 4.94270833333333  C 4.55555555555556 5.25868055555556  4.17777777777778 5.41666666666667  3.73333333333333 5.41666666666667  C 3.28888888888889 5.41666666666667  2.91111111111111 5.25868055555556  2.6 4.94270833333333  C 2.28888888888889 4.62673611111111  2.13333333333333 4.24305555555556  2.13333333333333 3.79166666666667  C 2.13333333333333 3.34027777777778  2.28888888888889 2.95659722222222  2.6 2.640625  C 2.91111111111111 2.32465277777778  3.28888888888889 2.16666666666667  3.73333333333333 2.16666666666667  C 4.17777777777778 2.16666666666667  4.55555555555556 2.32465277777778  4.86666666666667 2.640625  Z M 10.4 3.52083333333333  L 13.8666666666667 7.04166666666667  L 13.8666666666667 10.8333333333333  L 2.13333333333333 10.8333333333333  L 2.13333333333333 9.20833333333333  L 4.8 6.5  L 6.13333333333333 7.85416666666667  L 10.4 3.52083333333333  Z M 14.8541666666667 1.16373697916667  C 14.8013888888889 1.11013454861111  14.7388888888889 1.08333333333333  14.6666666666667 1  L 1.33333333333333 1  C 1.26111111111111 1.08333333333333  1.19861111111111 1.11013454861111  1.14583333333333 1.16373697916667  C 1.09305555555556 1.21733940972222  1.06666666666667 1.28081597222222  1 1.35416666666667  L 1 11.6458333333333  C 1.06666666666667 11.7191840277778  1.09305555555556 11.7826605902778  1.14583333333333 11.8362630208333  C 1.19861111111111 11.8898654513889  1.26111111111111 11.9166666666667  1.33333333333333 12  L 14.6666666666667 12  C 14.7388888888889 11.9166666666667  14.8013888888889 11.8898654513889  14.8541666666667 11.8362630208333  C 14.9069444444444 11.7826605902778  14.9333333333333 11.7191840277778  15 11.6458333333333  L 15 1.35416666666667  C 14.9333333333333 1.28081597222222  14.9069444444444 1.21733940972222  14.8541666666667 1.16373697916667  Z M 15.6083333333333 0.397786458333334  C 15.8694444444444 0.662977430555555  16 0.981770833333334  16 1.35416666666667  L 16 11.6458333333333  C 16 12.0182291666667  15.8694444444444 12.3370225694444  15.6083333333333 12.6022135416667  C 15.3472222222222 12.8674045138889  15.0333333333333 13  14.6666666666667 13  L 1.33333333333333 13  C 0.966666666666667 13  0.652777777777778 12.8674045138889  0.391666666666667 12.6022135416667  C 0.130555555555556 12.3370225694444  0 12.0182291666667  0 11.6458333333333  L 0 1.35416666666667  C 0 0.981770833333334  0.130555555555556 0.662977430555555  0.391666666666667 0.397786458333334  C 0.652777777777778 0.13259548611111  0.966666666666667 0  1.33333333333333 0  L 14.6666666666667 0  C 15.0333333333333 0  15.3472222222222 0.13259548611111  15.6083333333333 0.397786458333334  Z " fill-rule="nonzero" fill="#ffff00" stroke="none" transform="matrix(1 0 0 1 86 271 )" />
  </g>
</svg>