<?xml version="1.0" encoding="utf-8"?>
<svg version="1.1" xmlns:xlink="http://www.w3.org/1999/xlink" width="13px" height="16px" xmlns="http://www.w3.org/2000/svg">
  <g transform="matrix(1 0 0 1 -88 -212 )">
    <path d="M 0.0780000000000001 4.89371428571429  L 0.0780000000000001 0  L 12.922 0  L 12.922 4.95428571428571  L 12.354 4.95428571428571  C 12.354 4.95428571428571  11.27 1.92914285714286  9.991 1.66514285714286  C 8.712 1.40114285714286  7.823 1.58285714285714  7.823 1.58285714285714  L 7.807 14.2137142857143  C 7.807 14.2137142857143  8.162 15.0674285714286  8.748 15.128  L 10.045 15.128  L 10.045 16  L 2.956 16  L 2.974 15.1062857142857  L 4.11 15.0857142857143  C 4.11 15.0857142857143  4.963 14.7805714285714  4.963 14.0697142857143  C 4.963 13.36  4.981 1.68457142857143  4.981 1.68457142857143  C 4.981 1.68457142857143  3.578 1.46285714285714  2.849 1.66628571428571  C 2.121 1.86857142857143  0.841 3.08685714285714  0.646 4.87314285714286  L 0.0780000000000001 4.89371428571429  Z " fill-rule="nonzero" fill="#ffff00" stroke="none" transform="matrix(1 0 0 1 88 212 )" />
  </g>
</svg>